# xmcd CD database file
#
# Track frame offsets:
#	150
#	10925
#	18990
#	30275
#	42865
#	54482
#	65630
#	91375
#	112660
#	126160
#	140260
#	154022
#	166210
#	179972
#	193657
#	205722
#	216047
#	230552
#	243460
#	257935
#	264797
#	274060
#	285797
#
# Disc length: 4026 seconds
#
# Revision: 0
# Processed by: cddbd v1.5.2PL0 Copyright (c) Steve Scherf et al.
# Submitted via: CDex 1.70beta2
#
DISCID=3a0fb817
DTITLE=Various Artist - Les plus grandes voix d'Hollywood
DYEAR=1900
DGENRE=Blues
TTITLE0=01 - Franck Sinatra - Night &day
TTITLE1=02 - Franck Sinatra - My happiness
TTITLE2=03 - Dean Martin - Innamorata
TTITLE3=04 - Dean Martin - I can't give you anything but love
TTITLE4=05 - Nat King Cole - Too marvelous for words
TTITLE5=06 - Nat King Cole - You're the cream of my coffee
TTITLE6=07 - Fred Astaire - Cheek to cheek
TTITLE7=08 - Fred Astaire - Dancing in the dark
TTITLE8=09 - Fred Astaire - S'wonderful
TTITLE9=10 - Bing Crosby - True love
TTITLE10=11 - Bing Crosby - White Christmas
TTITLE11=12 - Bing Crosby - Dream a little dream of me
TTITLE12=13 - Bing Crosby - I'm gonna sit right down
TTITLE13=14 - Marylin Monroe - Kiss
TTITLE14=15 - Gene Kelly - Singin' in the rain
TTITLE15=16 - Ginger Rogers - You'll never know
TTITLE16=17 - Joan Crawford - I never knew heaven could speak
TTITLE17=18 - Doris Day - Sentimental Journey
TTITLE18=19 - Judy Garland - Over the rainbow
TTITLE19=20 - Jean Harlow - Reckless
TTITLE20=21 - Shirley Temple - Captain january
TTITLE21=22 - Dorothy Lamour - It had to be you
TTITLE22=23 - Vitorio de Sica - Parlami d'amore mariù
EXTD=
EXTT0=
EXTT1=
EXTT2=
EXTT3=
EXTT4=
EXTT5=
EXTT6=
EXTT7=
EXTT8=
EXTT9=
EXTT10=
EXTT11=
EXTT12=
EXTT13=
EXTT14=
EXTT15=
EXTT16=
EXTT17=
EXTT18=
EXTT19=
EXTT20=
EXTT21=
EXTT22=
PLAYORDER=
